@startuml
'https://plantuml.com/class-diagram

class PreTrailCreditService {
}

class NoFillCreditService {
}

class FlashOpenCreditService {}

class FlashFinanceCreditService {}

class PortalCreditService {
}

class NormalCreditService {
}

class DirectCreditService {
}

class CreditApplyInfoEntity {
}

class BranchInfo {
}

class CurrencyInfo {
}

class CreditApplyInfoRepository {}

DirectCreditService --> CreditApplyInfoEntity
PortalCreditService --> CreditApplyInfoEntity
PreTrailCreditService --> CreditApplyInfoEntity
NormalCreditService --> CreditApplyInfoEntity
NoFillCreditService --> CreditApplyInfoEntity
FlashOpenCreditService --> CreditApplyInfoEntity
FlashFinanceCreditService --> CreditApplyInfoEntity
CreditApplyInfoEntity <-- CreditApplyInfoRepository

CreditApplyInfoEntity *-- CurrencyInfo
CreditApplyInfoEntity *-- BranchInfo



@enduml