@startuml

class PreTrailCreditService {
}

class NoFillCreditService {
}

class FlashOpenCreditService {}

class FlashFinanceCreditService {}

class PortalCreditService {
}

class NormalCreditService {
}

class DirectCreditService {
}

class OnbIlcMstDao {
}

class BranchService {
}

class CurrencyService {
}

PortalCreditService --> OnbIlcMstDao
PreTrailCreditService --> OnbIlcMstDao
NormalCreditService --> OnbIlcMstDao
NoFillCreditService --> OnbIlcMstDao
FlashOpenCreditService --> OnbIlcMstDao
FlashFinanceCreditService --> OnbIlcMstDao
DirectCreditService --> OnbIlcMstDao
PortalCreditService --> BranchService
PreTrailCreditService --> BranchService
NormalCreditService --> BranchService
NoFillCreditService --> BranchService
FlashOpenCreditService --> BranchService
FlashFinanceCreditService --> BranchService
DirectCreditService --> BranchService
PortalCreditService --> CurrencyService
PreTrailCreditService --> CurrencyService
NormalCreditService --> CurrencyService
NoFillCreditService --> CurrencyService
FlashOpenCreditService --> CurrencyService
FlashFinanceCreditService --> CurrencyService
DirectCreditService --> CurrencyService


@enduml