@startuml
class PortalCreditService {
}

class NormalCreditService {
}

class OnbIlcMstDao {
}

class BranchService {
}

class CurrencyService {
}

PortalCreditService --> OnbIlcMstDao
NormalCreditService --> OnbIlcMstDao
PortalCreditService --> BranchService
NormalCreditService --> BranchService
PortalCreditService --> CurrencyService
NormalCreditService --> CurrencyService


@enduml